# xmcd
# Copyright (C) 1995-1998 Ti Kan
#
# Track frame offsets:
#       150
#       20667
#       45567
#       60906
#       78329
#       92813
#       117828
#       140941
#       155966
#       175171
#       186841
#
# Disc length: 2827 seconds
#
# Revision: 0
# Processed by: cddbd v1.5.2PL0 Copyright (c) Steve Scherf et al.
# Submitted via: CD-Import v1.0
#
DISCID=940b090b
DTITLE=Helldorado - Director's Cut
DYEAR=2004
DGENRE=
TTITLE0=Blood Shack
TTITLE1=Lucy And Mary
TTITLE2=Payrolled
TTITLE3=Diesel And Bones
TTITLE4=The Snake Girl Song
TTITLE5=Dead River
TTITLE6=I'd Waited For This Day
TTITLE7=Killer On The Highway
TTITLE8=Teenage Queen
TTITLE9=Woman Shouldn't Drink
TTITLE10=Roadhouse
EXTD=
EXTT0=
EXTT1=
EXTT2=
EXTT3=
EXTT4=
EXTT5=
EXTT6=
EXTT7=
EXTT8=
EXTT9=
EXTT10=
PLAYORDER=
